<svg id="Artwork" xmlns="http://www.w3.org/2000/svg" viewBox="0 0 109.52397 72"><title>  copy 9</title><rect x="4.50064" y="61.17983" width="105.02334" height="3.63023"/><rect x="4.50064" y="68.36977" width="105.02334" height="3.63023"/><path d="M9.26386,3.7054V16.469H5.14662V3.7054H0V0H14.41035V3.7054Z"/><path d="M30.5513,10.19015H19.7435V16.469H15.62626V0H19.7435V6.27883H30.5513V0h4.11725V16.469H30.5513Z"/><path d="M36.56444,16.469V0H48.27791V3.7054H40.68169V6.48475h6.15525V9.98423H40.68169v2.77935h7.59622V16.469Z"/><path d="M9.242,26.51726H8.62437V37.05741H4.50712v-16.469H9.32436l9.59312,10.293h.61765v-10.293h4.11724v16.469H18.99982Z"/><path d="M25.54827,37.05741v-16.469H37.26186v3.7054H29.66551v2.77935h6.15525v3.49947H29.66551V33.352h7.59635v3.7054Z"/><path d="M37.63345,20.58843h4.5907L45.7856,33.70176h.96752L50.0058,20.58843h7.74042l3.72614,13.11333h.96752l3.08787-13.11333h4.67317l-4.54959,16.469H58.32264L54.53477,23.94408H53.38194L49.92346,37.05741h-7.3287Z"/><path d="M3.57924,46.19977c0-3.4791,2.77923-5.35254,6.36117-5.35254a12.63875,12.63875,0,0,1,5.66118,1.27629l-.78221,3.49972a10.68673,10.68673,0,0,0-5.023-1.25567c-1.27641,0-2.141.49407-2.141,1.35851,0,2.67627,8.44029,1.17344,8.44029,6.71129,0,2.9438-2.09973,5.5376-6.48463,5.5376a13.82689,13.82689,0,0,1-5.70241-1.05l.16469-3.76725a12.85915,12.85915,0,0,0,5.6613,1.2969c1.81159,0,2.26443-.63814,2.26443-1.39974C11.999,50.58455,3.57924,52.02552,3.57924,46.19977Z"/><path d="M29.74565,57.41905a11.15322,11.15322,0,0,1-4.28194.55592,8.461,8.461,0,0,1-8.58448-8.58448c0-4.67317,3.60256-8.52264,8.955-8.52264a13.44951,13.44951,0,0,1,4.179.47345l-.39111,3.74663a10.60137,10.60137,0,0,0-3.66429-.535c-3.04676,0-4.83785,1.791-4.83785,4.83761,0,3.0675,2.03813,4.81723,4.94069,4.81723a9.24667,9.24667,0,0,0,3.685-.59715Z"/><path d="M46.56585,51.36676H35.75805v6.27883H31.64081v-16.469h4.11724v6.27883h10.8078V41.17661h4.11724v16.469H46.56585Z"/><path d="M61.51335,40.84723c5.66118,0,9.73731,2.92319,9.73731,8.4814,0,5.78476-4.40551,8.64634-9.75793,8.64634-5.39353,0-9.799-2.90256-9.799-8.62572C51.69369,43.95572,55.70809,40.84723,61.51335,40.84723Zm-.06173,13.66926c3.23207,0,5.55822-1.6469,5.55822-5.27008,0-3.29379-2.32615-4.94069-5.53761-4.94069s-5.53772,1.60566-5.53772,5.06415C55.93451,52.849,58.26078,54.51649,61.45162,54.51649Z"/><path d="M81.79264,40.84723c5.66118,0,9.7372,2.92319,9.7372,8.4814,0,5.78476-4.40539,8.64634-9.75781,8.64634-5.39365,0-9.799-2.90256-9.799-8.62572C71.973,43.95572,75.98727,40.84723,81.79264,40.84723Zm-.06185,13.66926c3.23207,0,5.55835-1.6469,5.55835-5.27008,0-3.29379-2.32628-4.94069-5.53773-4.94069s-5.53772,1.60566-5.53772,5.06415C76.21369,52.849,78.54,54.51649,81.73079,54.51649Z"/><path d="M92.66389,41.17661h4.11724V53.73427H109.524v3.91132H92.66389Z"/></svg>